# xmcd
#
# Track frame offsets: 
#        150
#        18432
#        34335
#        62365
#        81030
#        93047
#        110310
#        127217
#        146395
#        170295
#        196212
#
# Disc length: 3018 seconds
#
# Revision: 0
# Processed by: cddbd v1.5.2PL0 Copyright (c) Steve Scherf et al.
# Submitted via: ExactAudioCopy v1.0b3
#
DISCID=850bc80b
DTITLE=Toth Bagi Band - Crazy Clock
DYEAR=2000
DGENRE=Blues-Rock
TTITLE0=Unknown Artist - Your Way
TTITLE1=Unknown Artist - I Ain't Superstitous
TTITLE2=Unknown Artist - Angel Left Me Today
TTITLE3=Unknown Artist - Baby Blue 
TTITLE4=Unknown Artist - Lucky Jack
TTITLE5=Unknown Artist - October
TTITLE6=Unknown Artist - Six Shooter
TTITLE7=Unknown Artist - Never Mind
TTITLE8=Unknown Artist - Losein'The Blues
TTITLE9=Unknown Artist - Crazy Clock
TTITLE10=Unknown Artist - Red House
EXTD=
EXTT0=
EXTT1=
EXTT2=
EXTT3=
EXTT4=
EXTT5=
EXTT6=
EXTT7=
EXTT8=
EXTT9=
EXTT10=
PLAYORDER=
